# xmcd CD database file generated by Grip 3.2.0
# 
# Track frame offsets:
#       150
#       13620
#       26632
#       39695
#       53450
#       66275
#       78307
#       90387
#       104087
#       117602
#       130735
#       142902
#       154402
#       166605
#       178000
#       189832
#       202865
#       214772
# 
# Disc length: 3013 seconds
# 
# Revision: 2
# Processed by: cddbd v1.5.1PL0 Copyright (c) Steve Scherf et al.
# Submitted via: Grip 3.2.0
# 
DISCID=ec0bc312
DTITLE=Robert Johnson - I Went Down To The Crossroads
DYEAR=1997
DGENRE=Blues
TTITLE0=I Believe I'll Dust My Broom
TTITLE1=Kind-Hearted Woman Blues
TTITLE2=Rambling On My Mind
TTITLE3=Sweet Home Chicago
TTITLE4=Come On In My Kitchen
TTITLE5=When You Got A Friend
TTITLE6=Phonograph Blues
TTITLE7=Terraplane Blues
TTITLE8=They're Red Hot
TTITLE9=30-20 Blues
TTITLE10=Cross Road Blues
TTITLE11=Dead Shrimp Blues
TTITLE12=Last Fair Deal Come Down
TTITLE13=Walking Blues
TTITLE14=If I Had Possession Over Judgement Day
TTITLE15=Preaching Blues (Up Jumped The Devil)
TTITLE16=I'm A Steady Rollin' Man
TTITLE17=Stones In My Passway
EXTD=
EXTT0=
EXTT1=
EXTT2=
EXTT3=
EXTT4=
EXTT5=
EXTT6=
EXTT7=
EXTT8=
EXTT9=
EXTT10=
EXTT11=
EXTT12=
EXTT13=
EXTT14=
EXTT15=
EXTT16=
EXTT17=
PLAYORDER=
